<?xml version="1.0" standalone="no"?>
<!DOCTYPE svg PUBLIC "-//W3C//DTD SVG 20010904//EN"
 "http://www.w3.org/TR/2001/REC-SVG-20010904/DTD/svg10.dtd">
<svg version="1.0" xmlns="http://www.w3.org/2000/svg"
 width="700.000000pt" height="700.000000pt" viewBox="0 0 700.000000 700.000000"
 preserveAspectRatio="xMidYMid meet">
<metadata>
Created by potrace 1.14, written by Peter Selinger 2001-2017
</metadata>
<g transform="translate(0.000000,700.000000) scale(0.100000,-0.100000)"
fill="#000000" stroke="none">
<path d="M2687 6079 c-24 -14 -67 -58 -67 -69 0 -5 -8 -15 -18 -22 -34 -25
-52 -62 -52 -109 0 -57 7 -76 30 -89 14 -7 23 -6 35 6 25 25 31 7 10 -29 -11
-18 -19 -34 -20 -37 0 -8 -20 1 -23 11 -7 17 -69 9 -93 -12 -15 -13 -31 -18
-44 -14 -42 13 -62 11 -83 -6 -12 -9 -22 -22 -22 -28 0 -6 -15 -27 -33 -46
-18 -19 -34 -47 -35 -62 -1 -16 -4 -37 -6 -48 -3 -19 41 -117 57 -123 4 -2 7
-10 7 -18 0 -8 5 -14 12 -14 6 0 9 -3 5 -6 -3 -3 10 -31 29 -62 19 -32 34 -63
34 -69 0 -7 5 -13 10 -13 6 0 10 -9 10 -20 0 -11 5 -20 10 -20 6 0 10 -6 10
-14 0 -7 10 -35 21 -61 20 -45 20 -49 5 -61 -27 -19 -24 -89 4 -119 l23 -25
-20 -17 c-11 -10 -23 -28 -27 -40 -4 -12 -25 -39 -46 -59 -22 -21 -37 -41 -34
-46 3 -4 1 -8 -5 -8 -20 0 -9 -70 15 -93 30 -30 116 -53 216 -56 15 -1 16 -18
13 -168 -2 -93 -4 -168 -5 -168 -1 0 -3 -27 -4 -60 -3 -52 -37 -185 -65 -250
-31 -74 -58 -118 -91 -153 -31 -32 -38 -46 -38 -80 -1 -52 -26 -105 -64 -137
-16 -14 -27 -25 -24 -25 4 0 -7 -12 -24 -27 -63 -57 -73 -165 -23 -238 26 -37
28 -44 19 -93 -21 -122 23 -136 439 -136 222 -1 477 9 507 19 7 2 42 6 78 9
162 14 241 44 239 91 0 11 -6 36 -13 55 -12 33 -11 38 18 80 51 74 40 170 -28
243 -14 15 -27 27 -30 27 -2 0 -20 16 -40 35 -43 42 -73 91 -79 133 -6 39 -14
52 -32 52 -18 0 -93 77 -101 104 -4 11 -10 23 -13 26 -9 6 -70 148 -76 175 -1
6 -10 33 -20 60 -9 28 -18 59 -20 70 -1 11 -5 31 -9 45 -11 46 -36 196 -34
209 0 3 -1 8 -2 11 -1 3 -4 26 -6 51 -5 45 -5 46 25 47 50 1 154 32 188 55 28
19 31 26 29 66 -2 35 -9 50 -32 70 -49 43 -134 146 -134 164 0 9 5 19 10 22
20 12 11 65 -15 91 -15 15 -24 33 -21 42 3 10 7 29 10 44 2 14 9 36 16 47 6
12 8 21 5 21 -3 0 2 17 11 38 9 20 17 42 18 47 2 6 13 32 24 58 12 27 22 53
22 58 0 5 5 9 12 9 6 0 8 3 5 6 -3 4 -1 16 5 28 7 11 13 23 13 26 1 3 7 18 13
33 14 33 15 57 4 57 -5 0 -15 18 -22 41 -14 42 -39 60 -75 53 -23 -4 -55 4
-54 14 5 29 -5 45 -35 57 -42 18 -83 6 -126 -36 -15 -16 -32 -29 -37 -29 -5 0
-18 21 -29 48 -19 45 -19 48 -2 65 10 9 22 17 28 17 17 0 36 54 33 95 -5 78
-9 84 -48 75 -19 -4 -35 -5 -35 -1 0 3 -7 -3 -15 -13 -13 -17 -15 -18 -21 -2
-3 9 0 23 7 32 20 24 19 67 -2 85 -22 19 -134 25 -162 8z"/>
<path d="M4695 4028 c-11 -81 -16 -84 -59 -38 -43 47 -64 48 -86 5 -8 -16 -22
-36 -30 -43 -13 -12 -13 -13 0 -6 12 6 13 5 4 -7 -20 -26 -23 -57 -5 -65 9 -4
19 -6 24 -6 4 1 7 -3 7 -9 0 -12 -30 -44 -30 -32 0 4 -7 0 -14 -9 -12 -16 -14
-16 -34 7 -27 30 -47 31 -91 4 -27 -16 -36 -18 -42 -7 -5 7 -9 9 -9 4 0 -5
-12 4 -27 18 -22 22 -33 26 -57 22 -17 -4 -33 -11 -37 -18 -4 -7 -13 1 -23 21
-18 35 -51 42 -71 15 -7 -10 -27 -17 -50 -18 l-38 -1 -3 -111 c-3 -146 -14
-275 -27 -339 -3 -11 -8 -44 -12 -73 -8 -64 -30 -90 -69 -83 -5 1 -17 -6 -28
-16 -14 -12 -18 -26 -15 -50 3 -22 1 -33 -8 -33 -18 0 -43 -31 -47 -59 -2 -19
-10 -25 -37 -27 -20 -3 -41 -13 -52 -28 -14 -18 -28 -24 -57 -23 -43 1 -105
-21 -97 -33 3 -5 0 -10 -5 -12 -15 -5 -24 -68 -11 -68 6 0 11 -7 11 -15 0 -8
16 -22 35 -31 19 -9 35 -20 35 -25 0 -5 7 -9 15 -9 16 0 65 -28 76 -44 4 -5
12 -5 18 -2 6 4 11 2 11 -3 0 -6 7 -11 15 -11 25 0 17 -31 -26 -110 -52 -96
-72 -131 -82 -145 -5 -5 -31 -46 -60 -90 -28 -44 -58 -87 -67 -96 -8 -9 -28
-33 -45 -54 -16 -21 -40 -47 -52 -58 -13 -12 -23 -27 -23 -34 0 -7 -4 -13 -8
-13 -4 0 -38 -29 -74 -64 -37 -35 -81 -69 -98 -76 -16 -7 -30 -16 -30 -21 0
-5 -3 -8 -7 -7 -5 1 -19 -4 -33 -12 -14 -7 -34 -14 -46 -14 -21 -2 -74 -38
-74 -51 0 -5 -18 -25 -40 -45 -22 -20 -40 -35 -40 -32 0 2 -7 -1 -15 -8 -8 -7
-15 -9 -15 -4 0 5 -4 4 -8 -3 -4 -7 -25 -14 -47 -17 -22 -2 -40 -5 -40 -6 0
-1 -7 -3 -15 -5 -8 -2 -28 -6 -45 -10 -16 -3 -35 -7 -42 -7 -7 -1 -14 -7 -17
-15 -3 -7 -11 -13 -17 -13 -14 0 -46 -36 -54 -61 -4 -11 -11 -19 -16 -19 -6 0
-7 -6 -2 -12 10 -17 10 -37 1 -64 -4 -12 -4 -25 0 -28 14 -15 7 -49 -15 -66
-13 -10 -32 -35 -42 -55 l-18 -37 31 -35 c17 -19 63 -56 101 -82 98 -64 107
-70 135 -83 14 -7 27 -15 30 -19 3 -3 12 -9 20 -13 8 -4 24 -12 35 -19 43 -26
153 -87 220 -122 39 -20 74 -40 80 -46 5 -5 17 -9 26 -9 10 0 19 -3 21 -8 4
-9 253 -132 268 -132 5 0 10 -4 10 -10 0 -5 8 -10 18 -10 10 0 22 -3 26 -7 14
-14 80 -32 107 -28 27 3 73 24 55 25 -5 0 -2 7 5 17 8 9 12 17 10 17 -2 1 1
17 8 37 11 34 43 59 74 59 12 0 87 62 78 64 -2 1 2 18 9 40 16 50 9 119 -19
176 -20 41 -34 89 -33 115 1 51 29 145 42 145 20 0 14 38 -11 67 -26 30 -28
38 -24 100 5 77 4 72 39 218 14 59 33 121 40 139 14 31 28 71 32 93 1 6 39 87
85 180 45 92 83 171 84 176 2 4 4 9 5 12 1 3 3 9 4 13 0 5 9 16 19 26 9 10 17
23 17 30 0 8 10 11 30 8 17 -2 30 -8 30 -13 0 -5 8 -9 18 -9 10 0 22 -4 28 -9
17 -16 164 -61 199 -61 42 0 82 35 80 70 -2 31 -20 76 -35 85 -6 4 -9 24 -6
51 3 24 2 44 -3 44 -16 0 -19 41 -5 68 8 15 14 35 14 44 0 17 60 57 60 41 1
-5 7 3 14 16 10 18 11 31 2 52 -6 16 -14 29 -18 29 -5 0 4 18 18 40 15 22 30
40 35 40 4 0 11 9 14 20 4 11 11 18 16 15 5 -4 9 -3 9 2 0 4 23 31 50 60 28
29 50 50 50 48 0 -2 12 9 28 23 15 15 51 47 81 72 29 25 59 51 67 58 7 6 15
12 19 12 4 0 20 14 37 30 16 17 33 30 36 30 4 0 13 9 20 20 14 23 1 60 -22 60
-7 0 -17 10 -23 22 -7 17 -19 23 -49 24 -21 1 -45 2 -52 3 -7 0 -20 18 -30 39
-22 48 -28 52 -79 52 -24 0 -43 4 -43 9 0 23 38 72 67 88 17 9 31 19 31 22 -1
3 4 17 9 31 31 71 33 81 20 85 -11 3 -79 14 -99 15 -15 0 -8 17 28 62 31 40
34 49 23 66 -13 21 -69 58 -81 54 -5 -1 -8 1 -8 6 0 4 -20 8 -44 10 l-44 2 -7
-52z"/>
</g>
</svg>
